:FULLY-SPECIFIED
:FORCE-ALL-JOINTS-BE-3DOF
:DEGREES
1325
root -1.63445 14.8639 8.39516 352.172 28.7456 364.237
lfemur 6.55832 2.35189 -16.509
ltibia 54.5503 0 0
lfoot -31.023 27.3958 0
ltoes -19.8332 0 0
rfemur -56.5396 -8.33678 1.37788
rtibia 46.3768 0 0
rfoot 20.0008 10.9247 0
rtoes 7.71773 0 0
lowerback 13.7576 0.395253 -12.1715
upperback -1.56013 -1.33055 0.35879
thorax -9.39872 0.011067 7.50723
lowerneck -4.02047 -9.93294 -11.6306
upperneck 15.1158 -13.587 8.02626
head 6.6176 -6.76011 3.45134
lclavicle 7.41487e-14 -1.12519e-15 0
lhumerus -47.5397 -45.3374 115.758
lradius 113.124 0 0
lwrist 40.5933 0 0
lhand -11.5286 47.0137 0
lfingers 7.12502 0 0
lthumb 14.5139 -283.446 0
rclavicle 7.41487e-14 -1.12519e-15 0
rhumerus 43.8696 12.9671 -49.3157
rradius 99.7272 0 0
rwrist -14.6576 0 0
rhand -20.195 -30.3562 0
rfingers 7.12502 0 0
rthumb 6.14822 -59.7365 0
1326
root -1.65134 14.8409 8.5742 352.43 29.0252 364.366
lfemur 7.15466 2.10741 -16.3008
ltibia 54.062 0 0
lfoot -30.9212 27.673 0
ltoes -19.9909 0 0
rfemur -56.8545 -8.66304 1.38361
rtibia 46.9396 0 0
rfoot 19.4507 10.9651 0
rtoes 7.44094 0 0
lowerback 13.7324 0.42963 -12.2118
upperback -1.59181 -1.2929 0.304915
thorax -9.42842 0.0323514 7.4622
lowerneck -3.84104 -10.038 -11.6659
upperneck 14.8578 -13.7383 8.10516
head 6.53045 -6.83747 3.48081
lclavicle 7.42761e-14 -1.50327e-15 0
lhumerus -48.9301 -44.4769 115.625
lradius 112.872 0 0
lwrist 41.0944 0 0
lhand -11.4421 46.8843 0
lfingers 7.12502 0 0
lthumb 14.5973 -283.581 0
rclavicle 7.42761e-14 -1.50327e-15 0
rhumerus 44.8121 11.9546 -48.2985
rradius 99.2024 0 0
rwrist -13.0458 0 0
rhand -21.0388 -30.4466 0
rfingers 7.12502 0 0
rthumb 5.33417 -59.8273 0
1327
root -1.66742 14.818 8.74047 352.709 29.2686 364.482
lfemur 7.68502 1.87963 -16.0997
ltibia 53.5586 0 0
lfoot -30.776 27.942 0
ltoes -20.1014 0 0
rfemur -57.1003 -8.98864 1.42131
rtibia 47.5062 0 0
rfoot 18.8594 10.9676 0
rtoes 7.11265 0 0
lowerback 13.6968 0.467543 -12.2355
upperback -1.62772 -1.24803 0.253142
thorax -9.45678 0.0563816 7.409
lowerneck -3.66097 -10.1364 -11.6952
upperneck 14.59 -13.8806 8.18381
head 6.43917 -6.91029 3.51
lclavicle 7.42982e-14 -1.87587e-15 0
lhumerus -50.2264 -43.5876 115.437
lradius 112.596 0 0
lwrist 41.6144 0 0
lhand -11.3715 46.751 0
lfingers 7.12502 0 0
lthumb 14.6654 -283.718 0
rclavicle 7.42982e-14 -1.87587e-15 0
rhumerus 45.6924 10.9617 -47.3163
rradius 98.6587 0 0
rwrist -11.4457 0 0
rhand -21.8766 -30.5362 0
rfingers 7.12502 0 0
rthumb 4.52586 -59.9169 0
1328
root -1.68274 14.795 8.89493 353.006 29.478 364.584
lfemur 8.1548 1.66753 -15.9051
ltibia 53.0397 0 0
lfoot -30.5902 28.2032 0
ltoes -20.1686 0 0
rfemur -57.2824 -9.31381 1.48907
rtibia 48.077 0 0
rfoot 18.2294 10.935 0
rtoes 6.73715 0 0
lowerback 13.6514 0.508767 -12.2437
upperback -1.66757 -1.1964 0.203315
thorax -9.48385 0.0829811 7.34813
lowerneck -3.48035 -10.2286 -11.7189
upperneck 14.313 -14.0147 8.26224
head 6.34404 -6.97886 3.53894
lclavicle 7.42191e-14 -2.24349e-15 0
lhumerus -51.4352 -42.6715 115.199
lradius 112.298 0 0
lwrist 42.1521 0 0
lhand -11.3156 46.6143 0
lfingers 7.12502 0 0
lthumb 14.7192 -283.859 0
rclavicle 7.42191e-14 -2.24349e-15 0
rhumerus 46.5149 9.98698 -46.3668
rradius 98.0973 0 0
rwrist -9.8566 0 0
rhand -22.7088 -30.625 0
rfingers 7.12502 0 0
rthumb 3.72287 -60.0051 0
